<svg width="55" height="32" viewBox="0 0 55 32" fill="none" xmlns="http://www.w3.org/2000/svg">
<path d="M15.9897 0.642449C20.7041 0.642449 25.4186 0.642449 30.133 0.642449C30.6412 0.642449 31.0858 0.810036 31.4409 1.18341C31.4878 1.23334 31.5286 1.24506 31.5911 1.21927C32.244 0.954167 32.9114 0.726597 33.5902 0.537678C34.1504 0.378999 34.7211 0.270009 35.2938 0.165238C35.7541 0.0810936 36.2177 0.103126 36.6797 0.0749996C36.9553 0.0583581 37.2267 0.00327731 37.5047 0.000933447C37.985 -0.00328551 38.4638 0.00585557 38.9427 0.0478107C39.2181 0.0712494 39.4951 0.09586 39.7712 0.0914066C40.1955 0.084375 40.6071 0.162895 41.0189 0.242352C41.8718 0.406422 42.7156 0.609166 43.5315 0.912697C44.4172 1.24084 45.2645 1.65383 46.0952 2.10221C46.8181 2.49223 47.4584 3.00014 48.103 3.50196C48.6505 3.92831 49.1612 4.39685 49.6499 4.88813C50.0296 5.26924 50.3669 5.68973 50.7382 6.07857C51.1209 6.47937 51.401 6.95096 51.7015 7.40895C52.0341 7.91546 52.3653 8.42338 52.6355 8.96739C52.9098 9.52007 53.1343 10.0943 53.3605 10.6676C53.7029 11.536 53.8431 12.4534 54.014 13.3631C54.1253 13.957 54.1447 14.5598 54.1883 15.1618C54.2856 16.5116 54.2425 17.8614 54.2458 19.211C54.2547 22.8942 54.249 26.5773 54.2486 30.2605C54.2486 30.6861 54.2471 31.1117 54.2441 31.5374C54.2441 31.6504 54.2296 31.7633 54.2329 31.8759C54.2352 31.953 54.2115 31.9745 54.1349 31.9736C53.8813 31.9708 53.6275 31.9748 53.3736 31.9773C50.9524 32.0008 48.5314 31.9944 46.1102 31.9947C43.5442 31.9947 40.978 31.9934 38.4118 31.9909C38.0525 31.9909 37.6932 31.9952 37.3336 31.9944C37.0095 31.9944 36.6893 31.9455 36.3679 31.9117C36.2594 31.9002 36.1507 31.8845 36.0419 31.8826C35.4794 31.8733 34.9323 31.7472 34.3853 31.6347C33.3287 31.4213 32.2975 31.0972 31.3089 30.6676C30.6063 30.3636 29.9343 29.9934 29.3019 29.562C29.0232 29.3705 28.7394 29.1856 28.449 29.0114C28.0414 28.7665 27.7029 28.4376 27.3523 28.125C26.9772 27.7905 26.5982 27.4595 26.2434 27.1023C25.7648 26.6202 25.3337 26.0982 24.9161 25.5634C24.3207 24.795 23.7911 23.9779 23.333 23.1206C22.9517 22.4134 22.6802 21.6643 22.4527 20.897C22.2022 20.049 22.0107 19.1847 21.8796 18.3103C21.8326 17.9752 21.8105 17.637 21.8137 17.2987C21.8123 16.4277 21.8076 15.5565 21.8151 14.6857C21.82 14.1012 21.9023 13.5239 22.0106 12.9498C22.196 11.9654 22.5007 11.0157 22.8239 10.0709C22.849 9.99728 22.8258 9.99494 22.7665 9.99494C22.1613 9.99611 21.5559 9.99728 20.9507 9.99494C20.8619 9.99494 20.8504 10.0313 20.8509 10.1063C20.8541 10.4696 20.8527 10.8329 20.8527 11.1959C20.8527 17.207 20.8527 23.2179 20.8527 29.2287C20.8527 29.5568 20.867 29.885 20.8293 30.2108C20.7953 30.5014 20.759 30.8017 20.5987 31.0454C20.3814 31.3759 20.098 31.6633 19.7134 31.7955C19.2976 31.9396 18.8628 32.0298 18.4193 31.9909C18.0093 31.9521 17.6022 31.8871 17.2005 31.7962C16.4767 31.6396 15.7811 31.4061 15.1276 31.0553C14.8418 30.904 14.5707 30.7264 14.3178 30.5248C13.9627 30.2384 13.613 29.9457 13.2987 29.6131C12.6778 28.9568 12.1936 28.2086 11.8066 27.3948C11.6003 26.9612 11.504 26.4929 11.3859 26.0324C11.2218 25.3923 11.1681 24.7404 11.1691 24.0788C11.1751 19.4309 11.1771 14.7831 11.1749 10.1353C11.1749 10.0266 11.1548 9.99236 11.0373 9.99259C9.79508 9.99564 8.55283 9.98205 7.31058 9.99447C6.66977 10.0008 6.04912 9.89767 5.43245 9.74602C4.54834 9.52851 3.76502 9.10755 3.02366 8.58721C2.64184 8.31954 2.34206 7.97781 2.01345 7.65693C1.51233 7.16988 1.11528 6.60758 0.776358 6.00826C0.424779 5.38432 0.215706 4.70038 0.108357 3.98878C0.0542138 3.61822 -0.00227334 3.24812 7.0527e-05 2.87404C0.00264878 2.49621 0.0427289 2.12002 0.164141 1.76C0.30196 1.35569 0.594943 1.08216 0.954961 0.873554C1.23341 0.712296 1.53694 0.642215 1.85805 0.642215L15.9897 0.642449ZM18.9172 19.0437V8.20446C18.9182 8.18494 18.9182 8.16538 18.9172 8.14586C18.9083 8.07133 18.9359 8.04578 19.0149 8.04531C19.5927 8.04109 20.1702 8.02656 20.748 8.02515C22.1929 8.02187 23.6383 8.02187 25.0841 8.02515C25.2089 8.02283 25.3332 8.01069 25.4561 7.98882C25.7214 7.94734 25.982 7.87702 26.2509 7.85522C26.328 7.8489 26.3378 7.87116 26.3097 7.93585C26.2281 8.12224 26.1151 8.29318 25.9755 8.44119C25.5958 8.84668 25.3009 9.31147 25.06 9.80626C24.4871 10.9796 24.0247 12.1925 23.8372 13.4934C23.7809 13.8822 23.6902 14.2669 23.6883 14.6634C23.6853 15.2843 23.6982 15.9057 23.6806 16.5264C23.6504 17.5862 23.7819 18.6234 24.0514 19.6474C24.234 20.3415 24.5176 20.9977 24.7733 21.6646C24.9939 22.2393 25.3405 22.7427 25.6748 23.2539C26.3107 24.2266 27.0323 25.1272 27.8698 25.9349C28.3654 26.4097 28.8861 26.8578 29.4296 27.277C30.6377 28.2145 31.9462 28.9645 33.4072 29.4373C34.1368 29.6733 34.8758 29.8639 35.6378 29.9651C35.9866 30.012 36.3396 30.005 36.6855 30.0589C37.0896 30.1219 37.4942 30.117 37.8997 30.117C41.9895 30.117 46.0792 30.1162 50.1686 30.1144C50.8718 30.1144 51.5749 30.1183 52.2781 30.1262C52.3786 30.1262 52.4004 30.0966 52.3979 30.0019C52.3906 29.7169 52.3925 29.4317 52.3925 29.1467C52.3925 24.7213 52.3925 20.2958 52.3925 15.8703C52.3925 15.8314 52.3948 15.792 52.3913 15.7531C52.3226 15.0157 52.2556 14.2783 52.1457 13.5454C52.0141 12.6818 51.7823 11.8366 51.4549 11.0267C50.7621 9.30068 49.7263 7.78702 48.4192 6.4618C47.8927 5.92833 47.3508 5.41151 46.7721 4.9343C46.1817 4.44724 45.5282 4.05066 44.8832 3.64377C44.0178 3.09882 43.0688 2.74325 42.1071 2.41511C41.6384 2.2555 41.1515 2.17346 40.661 2.11041C40.364 2.07174 40.0703 2.00752 39.7703 1.98431C39.5685 1.96861 39.3646 1.97423 39.1635 1.95197C38.7885 1.91025 38.4118 1.87063 38.0326 1.86946C37.6885 1.86946 37.3489 1.90954 37.0074 1.944C36.5273 1.99252 36.0438 1.98548 35.5633 2.05814C34.6801 2.19174 33.8162 2.37667 32.9825 2.71443C32.0897 3.07561 31.2297 3.4879 30.4614 4.07387C30.2975 4.20064 30.1122 4.29708 29.9143 4.35865C29.8895 4.36638 29.8553 4.37458 29.837 4.36333C29.8096 4.34646 29.8311 4.31411 29.8393 4.2895C30.0151 3.75229 30.0587 3.19914 30.0397 2.63778C30.0372 2.56114 30.0191 2.52809 29.9333 2.52949C29.586 2.53465 29.2384 2.53301 28.891 2.53301H4.09597C4.0491 2.53301 4.00222 2.52996 3.95534 2.52949C3.31101 2.52528 2.66622 2.52199 2.02236 2.51567C1.95204 2.51567 1.93727 2.54121 1.94267 2.6059C1.96282 2.84263 1.97079 3.0803 2.00314 3.31656C2.09947 4.02113 2.30432 4.6889 2.65684 5.30885C2.89123 5.72324 3.2121 6.06592 3.54095 6.40718C3.99261 6.87596 4.49373 7.26762 5.08297 7.54513C5.67222 7.82264 6.28632 8.00289 6.93463 8.02C7.7081 8.03992 8.48158 8.03195 9.25505 8.02773C10.5086 8.0207 11.763 8.01648 13.0153 8.04648C13.1009 8.04859 13.1159 8.07555 13.1161 8.15336C13.1191 9.11435 13.1304 10.0753 13.1306 11.0347C13.1306 15.46 13.1299 19.8854 13.1283 24.3108C13.1283 24.626 13.1259 24.9436 13.1899 25.2549C13.4843 26.6868 14.1744 27.8873 15.3252 28.7995C16.3293 29.5964 17.4745 30.0254 18.7662 30.031C18.9369 30.031 18.9167 30.0523 18.9169 29.8831C18.9172 26.2698 18.9173 22.6567 18.9172 19.0437Z" fill="#1575B7"/>
<path d="M36.8324 22.6141C36.8492 22.2525 36.8891 21.8932 36.9397 21.536C36.9812 21.2434 37.0086 20.95 37.0443 20.6561C37.0857 20.3123 37.1285 19.9692 37.1727 19.6269C37.2149 19.2955 37.2592 18.9643 37.3016 18.6328C37.3468 18.2781 37.3914 17.9235 37.4354 17.569C37.4544 17.4145 37.4673 17.2593 37.4863 17.1049C37.4877 17.0856 37.4853 17.0661 37.4791 17.0478C37.4729 17.0294 37.4631 17.0125 37.4502 16.998C37.3799 16.9005 37.3136 16.7971 37.2313 16.7097C36.8589 16.3129 36.9564 15.7452 37.2383 15.41C37.6159 14.9607 38.1745 14.878 38.6737 15.1906C38.7297 15.2256 38.7937 15.2528 38.8401 15.298C39.0225 15.4761 39.2402 15.4663 39.4615 15.4185C40.3207 15.2326 41.1781 15.0388 42.0376 14.8545C42.8814 14.6736 43.7287 14.503 44.5732 14.3237C45.4177 14.1443 46.2608 13.9911 47.0969 13.7867C47.298 13.7375 47.4789 13.8495 47.549 14.0717C47.6191 14.2939 47.5408 14.465 47.3312 14.5405C47.0446 14.6434 46.7453 14.6926 46.4467 14.7413C46.0445 14.807 45.6514 14.9127 45.2527 14.9938C44.4747 15.1522 43.6973 15.313 42.9206 15.4761C42.0447 15.6589 41.1691 15.8431 40.2938 16.0286C39.972 16.097 39.6523 16.1758 39.3312 16.2473C39.2894 16.2564 39.2608 16.2667 39.2463 16.3117C39.1193 16.675 38.8547 16.9335 38.576 17.1789C38.5095 17.2319 38.4629 17.3058 38.4435 17.3885C38.3732 17.7 38.3367 18.0155 38.3113 18.3331C38.2832 18.6816 38.2504 19.0301 38.1874 19.3747C38.1465 19.6161 38.1188 19.8595 38.1044 20.1039C38.0791 20.4536 38.0327 20.7997 37.9773 21.1452C37.9305 21.4455 37.9185 21.749 37.8904 22.0511C37.8602 22.3767 37.8137 22.6987 37.7005 23.0072C37.6886 23.0395 37.6879 23.092 37.6333 23.0892C37.4692 23.0808 37.3018 23.0913 37.1446 23.0553C36.864 22.9896 36.8202 22.913 36.8324 22.6141Z" fill="#E17100"/>
<path d="M30.9729 26.4028C30.9687 26.3245 31.0149 26.2019 31.0831 26.095C31.4054 25.5899 31.6899 25.0637 32.0026 24.5523C32.0532 24.4696 32.1198 24.3964 32.173 24.3158C32.3136 24.106 32.514 24.0779 32.7287 24.1534C33.0311 24.2598 33.3102 24.4154 33.5451 24.6371C33.7113 24.7942 33.7356 24.959 33.6402 25.1664C33.4293 25.627 33.1403 26.0435 32.8813 26.4766C32.7615 26.6768 32.657 26.8859 32.5225 27.0773C32.3603 27.3082 32.1943 27.3612 31.9283 27.2649C31.628 27.1564 31.3512 26.9913 31.1131 26.7785C31.0158 26.6939 30.976 26.5849 30.9729 26.4028Z" fill="#E17100"/>
<path d="M29.192 11.6352C29.0158 11.6396 28.8751 11.5606 28.7411 11.4756C28.206 11.1357 27.6456 10.8387 27.1072 10.5047C26.9649 10.4166 26.8667 10.3013 26.8376 10.1297C26.8263 10.0682 26.8339 10.0047 26.8594 9.9476C26.9933 9.66329 27.1231 9.37804 27.3298 9.13287C27.4871 8.94536 27.6641 8.90106 27.8889 8.97021C28.0663 9.02458 28.2217 9.11951 28.375 9.21819C28.8203 9.5039 29.2844 9.75728 29.7344 10.032C30.0335 10.2153 30.1155 10.485 29.9636 10.8003C29.8382 11.0607 29.7004 11.3122 29.4874 11.5152C29.3999 11.5996 29.3038 11.6424 29.192 11.6352Z" fill="#E17100"/>
<path d="M26.8743 22.0772C26.8546 21.881 26.9781 21.7704 27.1178 21.6698C27.4399 21.4375 27.7961 21.2615 28.133 21.0531C28.4032 20.8858 28.6664 20.7058 28.9533 20.5684C29.2322 20.4355 29.3722 20.4512 29.5686 20.6891C29.7795 20.9432 29.9637 21.2151 30.0453 21.5458C30.0922 21.7382 30.0289 21.8833 29.8892 22.0003C29.6644 22.1878 29.3986 22.3137 29.15 22.4648C28.7724 22.6941 28.4079 22.9456 28.0059 23.1331C27.6834 23.2833 27.5322 23.2559 27.3079 22.9751C27.1441 22.7722 27.0117 22.5458 26.9151 22.3036C26.8877 22.2307 26.8647 22.1566 26.8743 22.0772Z" fill="#E17100"/>
<path d="M45.2755 26.4695C45.2772 26.5299 45.2641 26.5897 45.2372 26.6437C45.2103 26.6977 45.1705 26.7442 45.1212 26.7792C44.8712 26.9707 44.6236 27.1647 44.3114 27.2479C43.9992 27.3311 43.8928 27.2983 43.7105 27.0269C43.3959 26.5581 43.1329 26.0598 42.8332 25.5829C42.7689 25.4809 42.7038 25.3794 42.6457 25.2737C42.591 25.1796 42.5579 25.0746 42.5486 24.9662C42.5395 24.8274 42.5796 24.7156 42.6893 24.6263C42.9497 24.413 43.2297 24.2319 43.5548 24.1367C43.7799 24.0708 43.98 24.1571 44.111 24.3505C44.4793 24.8945 44.7973 25.4692 45.137 26.0308C45.2176 26.1646 45.2743 26.309 45.2755 26.4695Z" fill="#E17100"/>
<path d="M49.3326 10.0502C49.353 10.2407 49.2588 10.3718 49.1125 10.462C48.6895 10.7229 48.2615 10.9755 47.8363 11.2331C47.6703 11.3339 47.5093 11.4441 47.3324 11.5249C47.2293 11.5721 47.1175 11.5969 47.0042 11.5978C46.8357 11.5999 46.6953 11.5428 46.6004 11.3895C46.4431 11.1363 46.2579 10.9001 46.1825 10.6015C46.1286 10.3879 46.1989 10.2264 46.3592 10.0966C46.6114 9.89244 46.9095 9.76166 47.1828 9.59126C47.529 9.37562 47.874 9.15788 48.2352 8.96779C48.4825 8.8377 48.6977 8.88786 48.8704 9.11076C49.0228 9.30765 49.1751 9.5036 49.2672 9.73845C49.3094 9.83702 49.3316 9.94297 49.3326 10.0502Z" fill="#E17100"/>
<path d="M45.2073 5.65908C45.2171 5.83088 45.1658 5.98229 45.084 6.12082C44.7844 6.63006 44.4816 7.13751 44.1755 7.64316C44.1216 7.73246 44.0499 7.81098 43.9842 7.89301C43.8649 8.04232 43.7016 8.06341 43.5389 8.00481C43.2243 7.88948 42.9342 7.7159 42.6839 7.49315C42.5137 7.34291 42.4884 7.16501 42.5784 6.95172C42.7157 6.62756 42.9157 6.33926 43.1025 6.0437C43.2933 5.74158 43.4447 5.41578 43.65 5.12256C43.8741 4.80286 44.0916 4.74755 44.4411 4.91771C44.637 5.01328 44.825 5.1241 45.0036 5.24913C45.1508 5.35133 45.2267 5.48399 45.2073 5.65908Z" fill="#E17100"/>
<path d="M46.1842 21.6584C46.2008 21.4496 46.2779 21.26 46.3827 21.0821C46.4413 20.9815 46.5144 20.8889 46.5702 20.7868C46.7263 20.498 47.0247 20.4232 47.3296 20.5721C47.5185 20.6642 47.6929 20.7811 47.8731 20.8882C48.217 21.0926 48.5629 21.2933 48.9082 21.4953C49.0226 21.5621 49.1339 21.6322 49.2281 21.7278C49.361 21.8628 49.4013 22.0192 49.3453 22.1982C49.2422 22.5311 49.0444 22.8128 48.8285 23.076C48.7031 23.2288 48.5058 23.2007 48.3267 23.1463C48.085 23.0739 47.8799 22.93 47.6692 22.8001C47.2891 22.5657 46.9062 22.3355 46.5207 22.1094C46.4207 22.0506 46.3215 21.9885 46.2552 21.887C46.2097 21.8183 46.179 21.7449 46.1842 21.6584Z" fill="#E17100"/>
<path d="M33.6503 7.18228C33.6418 7.29947 33.6116 7.40588 33.5202 7.48534C33.2806 7.69371 33.0202 7.86973 32.7165 7.97028C32.4282 8.06568 32.2597 8.00685 32.0864 7.7502C31.8209 7.35713 31.5942 6.94039 31.3451 6.53678C31.2293 6.34927 31.1065 6.16457 31.0108 5.96417C30.8662 5.66181 30.8988 5.51884 31.1557 5.30414C31.3689 5.12855 31.6087 4.98804 31.8661 4.88787C31.9759 4.84518 32.0958 4.83525 32.2111 4.85927C32.2609 4.86905 32.308 4.88898 32.3497 4.91781C32.3913 4.94665 32.4266 4.98377 32.4533 5.02686C32.8309 5.59267 33.1503 6.1941 33.5223 6.76343C33.6036 6.88812 33.6402 7.03227 33.6503 7.18228Z" fill="#E17100"/>
<path d="M25.3023 16.0352C25.3023 15.9145 25.3005 15.7936 25.3023 15.6727C25.308 15.3487 25.4474 15.2177 25.7695 15.1889C26.5026 15.1228 27.2349 15.209 27.9673 15.1929C28.057 15.1929 28.1452 15.2159 28.2235 15.2597C28.3135 15.3065 28.3677 15.3799 28.3726 15.4805C28.3873 15.7791 28.4323 16.0767 28.3991 16.3777C28.3857 16.4982 28.3695 16.6189 28.3194 16.7265C28.257 16.8603 28.1119 16.8617 27.9894 16.8776C27.6907 16.9165 27.391 16.8952 27.091 16.8863C26.7598 16.8767 26.4288 16.9191 26.0974 16.8985C25.9385 16.8886 25.7793 16.8751 25.6216 16.854C25.4432 16.8305 25.3077 16.6442 25.3026 16.4215C25.2998 16.2928 25.3023 16.1639 25.3023 16.0352Z" fill="#E17100"/>
<path d="M49.3451 15.2358C49.6808 15.2358 50.0164 15.2342 50.353 15.2358C50.4936 15.2358 50.6317 15.2558 50.7564 15.3296C50.8053 15.3584 50.8459 15.3929 50.8515 15.4541C50.8937 15.9172 50.8942 16.3789 50.8074 16.8369C50.7978 16.8873 50.7746 16.8976 50.7299 16.9021C50.2915 16.9452 49.8508 16.96 49.4105 16.9464C49.0355 16.9368 48.6605 16.9079 48.288 16.9281C47.9475 16.9464 47.8439 16.7678 47.8113 16.5214C47.7717 16.2221 47.7457 15.9174 47.8218 15.6158C47.8945 15.327 48.0042 15.2328 48.304 15.2304C48.6513 15.2281 48.9987 15.2304 49.3461 15.2304L49.3451 15.2358Z" fill="#E17100"/>
<path d="M37.2794 4.7985C37.2794 4.45879 37.2794 4.11925 37.2794 3.77985C37.276 3.66645 37.306 3.55455 37.3656 3.45804C37.4465 3.33171 37.5696 3.2921 37.705 3.28928C38.0282 3.28319 38.3519 3.26584 38.6744 3.30897C38.8256 3.32913 38.9323 3.46437 38.9449 3.63852C38.9918 4.25425 38.948 4.86975 38.9515 5.48548C38.9531 5.73136 38.9695 5.9716 38.8784 6.20904C38.8315 6.33092 38.7773 6.38436 38.6374 6.37967C38.2826 6.36795 37.927 6.37217 37.5719 6.37826C37.4826 6.3799 37.4355 6.34404 37.3985 6.27302C37.3047 6.09325 37.2731 5.90082 37.2745 5.69995C37.2766 5.39946 37.2745 5.09898 37.2745 4.7985H37.2794Z" fill="#E17100"/>
<path d="M38.8949 27.207C38.8924 27.6359 38.8975 28.0646 38.8832 28.4938C38.8748 28.749 38.7426 28.7985 38.5759 28.8051C38.2567 28.8187 37.9361 28.8116 37.615 28.8076C37.4994 28.806 37.3963 28.7554 37.3063 28.6841C37.2214 28.6169 37.2428 28.5114 37.2324 28.4235C37.187 28.0431 37.209 27.6603 37.209 27.2783C37.2106 26.9621 37.209 26.6454 37.2036 26.3299C37.2036 26.2481 37.2145 26.1667 37.2362 26.0878C37.2805 25.9167 37.3817 25.7948 37.5669 25.7705C37.9239 25.7236 38.2816 25.7156 38.6369 25.7843C38.7862 25.8134 38.8926 25.9561 38.8928 26.1066C38.8946 26.4735 38.8953 26.8403 38.8949 27.207Z" fill="#E17100"/>
</svg>
